PathFileType	4	(X/Y/Z)	Patient4_TMGait_0pt3_03_right_21.trc.trc
DataRate	CameraRate	NumFrames	NumMarkers	Units	OrigDataRate	OrigDataStartFrame	OrigNumFrames
53.639846743295	53.639846743295	5	33	mm	53.639846743295	124	       141
Frame#	Time	Sacral			L.Shoulder			Chest			R.Shoulder			Neck			R.ASIS			L.ASIS			R.Thigh.Superior			R.Thigh.Lateral			R.Thigh.Inferior			R.Patella			L.Thigh.Superior			L.Thigh.Lateral			L.Thigh.Inferior			L.Patella			L.Shank.Superior			L.Shank.Lateral			L.Shank.Inferior			R.Shank.Superior			R.Shank.Lateral			R.Shank.Inferior			R.Heel			R.Midfoot.Superior			R.Midfoot.Lateral			R.Toe			L.Heel			L.Midfoot.Lateral			L.Midfoot.Superior			L.Toe			L.Elbow			L.Wrist			R.Elbow			R.Wrist			
		X1	Y1	Z1	X2	Y2	Z2	X3	Y3	Z3	X4	Y4	Z4	X5	Y5	Z5	X6	Y6	Z6	X7	Y7	Z7	X8	Y8	Z8	X9	Y9	Z9	X10	Y10	Z10	X11	Y11	Z11	X12	Y12	Z12	X13	Y13	Z13	X14	Y14	Z14	X15	Y15	Z15	X16	Y16	Z16	X17	Y17	Z17	X18	Y18	Z18	X19	Y19	Z19	X20	Y20	Z20	X21	Y21	Z21	X22	Y22	Z22	X23	Y23	Z23	X24	Y24	Z24	X25	Y25	Z25	X26	Y26	Z26	X27	Y27	Z27	X28	Y28	Z28	X29	Y29	Z29	X30	Y30	Z30	X31	Y31	Z31	X32	Y32	Z32	X33	Y33	Z33	

124	41.523071428571	693.265818116586	1001.997793172962	448.876420977536	915.718568067260	1424.437486747178	290.269233352874	979.538383139913	1357.430212832976	469.657584068112	865.884373000713	1436.507066122696	622.287303927596	863.967531011079	1488.998915500208	441.528776874419	902.432303718021	938.924980908853	601.613877667141	928.311622579109	952.401557281803	326.483614544442	968.225550639691	751.089577295466	581.242231637158	904.759860097412	635.945987134770	649.216428185126	992.714710999897	591.283195560431	573.443717531482	1012.302493262898	510.288780079194	589.190247600985	936.192468383888	725.990254605636	360.748648550495	836.010999415688	622.718093196592	287.020871856347	895.520535950638	534.580060327591	359.355421098561	882.352253436172	465.582460069113	367.999830253736	844.380933077344	398.449151468641	356.433118739448	743.074877434082	300.533774032409	293.752391515907	761.989908535289	183.094566348425	368.887268126592	996.419175733053	420.182799257999	604.070520987598	940.849211949114	312.219106247967	675.417691705662	1002.940877842404	220.831545685375	623.841331107298	899.260153318526	39.838398284598	610.833401575380	1065.531051263479	110.210441661567	637.789715687254	988.487702684834	37.396367960205	678.450579510048	1190.269458936753	72.427029759357	654.233797849189	610.145324999050	39.431087336369	396.715513703389	689.430820456076	35.750216073377	321.689088860831	772.109935296881	94.616292796134	355.463081389883	901.151811373872	40.031700692260	333.924421386453	1020.976598843555	1101.808732669036	158.139726818952	1276.296473514922	1088.976526341655	192.810615599684	694.570595301316	1132.544693875048	707.729123352029	666.128905508266	871.478603872925	711.527635822195	
125	41.541714285714	694.633088839586	1000.724300704469	454.378664916972	915.802893929599	1423.827967398062	296.029454284675	980.646183640600	1356.435123790568	474.934037966195	867.539655377309	1434.973780318725	628.316043467884	864.866173044296	1488.026955268957	447.564816239588	904.665123822625	937.507342264060	605.836553884767	929.288281606609	951.753230755819	330.709099042128	970.744957797574	749.601431165970	584.385129353660	906.401953122672	634.235899421475	651.195634860998	994.376463677785	590.149596493382	575.235904458892	1012.739628627574	508.407474984615	590.094320041065	936.149051983521	724.797807825612	363.805172548389	834.499981865484	622.618932585119	289.995206946796	893.563746733505	533.585624833624	361.397463566534	879.864339981411	464.478683196632	369.780572836929	841.318007761480	397.830652501252	358.008467539196	738.826716021036	301.109090060184	295.087691818882	757.130827336882	182.978819291862	369.396049522972	996.643160440289	417.968457332257	604.787137974963	940.663635460800	310.397068197453	676.105044206606	1001.003362919497	218.674663540681	623.491028616776	894.425227575485	40.444135987975	610.640271023248	1061.828590235175	107.497416026104	636.564879813121	983.618259096136	37.006691584952	678.265023825271	1186.030839045723	67.622272605499	653.134630662383	604.506681202608	39.763398940709	396.617883564420	683.867256540733	35.890428892792	321.732370939947	766.636031607631	94.679448745208	355.517808165519	895.626391895326	39.851859139527	333.882780295252	1021.311303541634	1101.232743537074	163.441454790841	1277.020826474669	1095.351294670268	197.065567140570	700.764358558978	1127.727316217111	713.784015306998	679.053353063736	865.822037898810	718.336258308741	
126	41.560357142857	696.087626556130	999.650849415006	460.055714725812	915.930137582421	1423.422220719574	301.983052367809	981.860970493285	1355.599506378924	480.379741848060	869.337576747203	1433.558849285004	634.556670549103	865.834101555845	1487.247269348463	453.820645212808	907.051149878465	936.344792315333	610.233942421874	930.298771591156	951.263160270760	335.103885118452	973.570423594686	748.558952453560	587.412348497268	908.707691502008	632.948240660563	653.211096289729	996.585664927652	589.354802699271	576.984943637738	1013.893587779059	506.689591285040	591.060766973451	936.340674524826	723.775184777404	366.931793413537	833.299329236380	622.616245315218	293.164665845347	892.150082207803	532.716112740933	363.528788425576	878.050955837751	463.399142618877	371.598243096741	838.730870734695	397.289023454116	359.653813541088	734.852924626084	301.948002831364	296.536017341792	752.477517579027	183.024890250485	369.886854034290	997.198920353795	415.957115516875	605.477021144150	940.483333329921	308.936047844734	676.823961933501	998.651911255673	216.653255816338	623.090818877224	888.613257188622	41.096434000545	610.375322053462	1057.184589402068	104.955480674563	635.425303271929	977.715275910955	36.767503721050	678.120923920237	1180.845812610319	62.984663371856	652.308379114227	598.886447633261	40.430960688046	396.483081984592	678.338244673272	36.179560811549	321.765685315074	761.292560411046	94.796916975186	355.522901328181	890.139007263348	39.626243203929	333.823105625839	1020.924349007061	1100.470636352424	168.992649078887	1276.981625544375	1100.019849932245	201.331747161799	707.745709705850	1122.625163758768	720.255408196939	693.379626170932	860.116200220280	726.306050980895	
127	41.579000000000	697.627906904600	998.876071342242	465.880635811797	916.121271478404	1423.295016226652	308.071533012059	983.160542048597	1355.015181616214	485.952232144434	871.237617844591	1432.380013706084	640.930675521241	866.849683983840	1486.744474474774	460.222307502001	909.556344571363	935.526067783296	614.813595991524	931.325403908891	951.006403132197	339.666195900920	976.532414425962	747.954899830212	590.393135152892	911.442369333609	632.090768033638	655.361516732671	999.059605269964	588.855549999449	578.769522158054	1015.477897455023	505.196623052175	592.138737832595	936.711829183886	723.005167086997	370.140677523051	832.398001098134	622.777097759432	296.483241901923	891.283111966255	532.038566281307	365.699985344403	876.920350649716	462.405515784638	373.369651415387	836.631295810142	396.894648125807	361.305952417306	731.177692935256	303.126888140415	298.062201367062	748.070528278128	183.315586028588	370.322480693064	997.912329476139	414.221656307681	606.201814118307	940.295693277109	307.819183358990	677.644432835877	996.033783938827	214.852640637762	622.711481037051	882.320618620496	41.694182898613	610.108219845648	1051.989100974565	102.744395274908	634.440578102609	971.304669622208	36.649839406980	678.033833786026	1175.156215715467	58.847920546592	651.723837517601	593.315713090443	41.572093939712	396.316079627791	672.856806818256	36.691385183898	321.784915935110	756.129658948346	94.992736500300	355.453606480492	884.680876757344	39.358286111870	333.747158268281	1019.789100113454	1099.603648407671	174.762389883124	1276.207936706125	1102.847676638586	205.648170755635	715.391635260640	1117.506336035771	727.101220043026	708.984008265869	854.695829897830	735.355746262229	
128	41.597642857143	699.246184312440	998.453885057487	471.848369423987	916.357966714739	1423.488302623928	314.234931948105	984.509701141286	1354.747068157891	491.599276063026	873.196768962493	1431.516525672610	647.364682617904	867.875446589623	1486.568730029022	466.699448256789	912.156481541546	935.095562299222	619.567194572742	932.346072567339	951.030600101797	344.386432886307	979.459972530734	747.718153977737	593.414016920308	914.319116107272	631.616252140999	657.731373054794	1001.493734669443	588.572861298350	580.671914094702	1017.153892344384	503.942512077237	593.374856005992	937.250654809244	722.556241797620	373.437863822754	831.841467517087	623.139130500938	299.908081804391	891.029606628942	531.603467950460	367.872372614869	876.541663397342	461.540875407983	375.025601558370	835.087743441657	396.694839365530	362.915298445564	727.879768839478	304.714673679756	299.639582997128	743.981835057099	183.930878612860	370.675399066097	998.553445205390	412.785841634952	607.026797211880	939.993203929463	306.996551751826	678.608278193862	993.203901773036	213.318697204425	622.417814631642	875.900785943924	42.181546825263	609.885149287058	1046.522297290755	100.955599853305	633.656727948829	964.761761784938	36.624007638723	678.005539464647	1169.274318197588	55.406845001604	651.344004994836	587.846282566081	43.347308561168	396.128456436246	667.445365196526	37.521544189051	321.789896443240	751.207159875321	95.298418865077	355.290870350961	879.238398540197	39.054384535874	333.659448139057	1017.895676635562	1098.704079969918	180.717318542995	1274.702907207763	1103.709007310727	210.065563399348	723.611797311382	1112.598763879644	734.308126536803	725.796963126164	849.858505999060	745.362976964403	
